<!-- Generated by IcoMoon.io -->
<svg version="1.1" xmlns="http://www.w3.org/2000/svg" width="36" height="32" viewBox="0 0 36 32">
<title>twitter</title>
<path fill="#afb1b8" d="M35.556 4.976c-1.322 0.58-2.731 0.964-4.2 1.151 1.511-0.907 2.647-2.309 3.192-3.978l0.014-0.051c-1.33 0.803-2.879 1.415-4.529 1.748l-0.093 0.016c-1.335-1.421-3.226-2.306-5.324-2.307h-0c-4.035 0-7.284 3.276-7.284 7.291 0 0.578 0.049 1.133 0.169 1.662-6.060-0.296-11.422-3.2-15.024-7.624-0.626 1.056-0.996 2.326-0.998 3.683v0.001c0.003 2.514 1.276 4.731 3.212 6.042l0.026 0.016c-1.213-0.033-2.343-0.362-3.329-0.917l0.036 0.019v0.080c0 3.542 2.527 6.484 5.84 7.162-0.593 0.162-1.24 0.24-1.911 0.24-0.467 0-0.938-0.026-1.38-0.124 0.944 2.887 3.624 5.009 6.811 5.078-2.461 1.938-5.605 3.109-9.023 3.109-0.005 0-0.011 0-0.016 0h0.001c-0.030 0-0.065 0-0.1 0-0.58 0-1.151-0.036-1.711-0.107l0.067 0.007c3.229 2.082 7.056 3.271 11.182 3.271 13.413 0 20.747-11.111 20.747-20.742 0-0.322-0.011-0.633-0.027-0.942 1.447-1.027 2.662-2.309 3.653-3.784z"></path>
</svg>
